<svg width="19" height="20" viewBox="0 0 19 20" fill="none" xmlns="http://www.w3.org/2000/svg">
<path d="M7.75871 2.58565L7.94961 1.7026L7.09999 2.00979C3.83829 3.1891 1.5 6.32275 1.5 9.99C1.5 14.6761 5.31386 18.49 10 18.49C11.9247 18.49 13.7628 17.8307 15.2385 16.6735L15.9531 16.1131L15.0975 15.8089C11.3346 14.4712 6.19973 9.79714 7.75871 2.58565ZM0.5 9.99C0.5 4.96042 4.42881 0.763721 9.50653 0.511952C6.42599 6.98148 10.6979 14.6125 17.7904 15.408C16.0729 17.8767 13.2316 19.49 10 19.49C4.75614 19.49 0.5 15.2339 0.5 9.99Z" fill="black" stroke="black"/>
</svg>
